<svg id="Group_2634" data-name="Group 2634" xmlns="http://www.w3.org/2000/svg" width="141.13" height="106.902" viewBox="0 0 141.13 106.902">
  <path id="Path_3301" data-name="Path 3301" d="M15.044,421.33c-2.93-5.762-4.22-13.227-5.356-16.069,1.217-3.157,5.86-8.895,7.126-11.265,2.4-4.486,10.1-12.9,11.087-14.433s7.377-1.094,10.22-2.843,1.86-5.58-1.968-5.468-4.5.982-5.577.448c-.79-.388,4.045-3.839.766-3.769-2.6.056-7.566,5.276-9.538,7.37s-9.72,10.265-14.3,14.076a96.188,96.188,0,0,0-8.234,8.58c-4.115-.045-9.272.961-15.461,2.839-3.087.937-8.042-.329-13.377-4.021-3.447-2.388-6.916-6.234-10.608-9.667-1.755-1.633-.612-12.545-2.843-12.583-1.213-.021-1.441,1.14-1.86,1.976-.734,1.472.031,4.482-1.489,3.842-5.087-2.147-3.538-5.818-9.454-5.482-1.615.091-7.755,2.514-2.339,9.23,2.975,3.692,11.171,6.14,11.793,6.954a153.964,153.964,0,0,0,10.786,14.436c4.332,4.895,9.2,8.171,10.888,10.828,3.377,5.3,4.87,13.576,11.423,24.055s16.709,10.08,16.709,10.08L26.76,437.752S18.121,427.378,15.044,421.33Z" transform="translate(60.355 -360.318)" fill="#dd8d57"/>
  <path id="Path_3302" data-name="Path 3302" d="M-39.592,389.438c-3.073.217-6.175-1.759-8.108-3.706a8.94,8.94,0,0,0,1.147-3.748,13.909,13.909,0,0,0-1.182-5.573l12.839-2.447s1.014,6.178,1.776,7.472a4.993,4.993,0,0,0,1.5,1.262C-30.876,386.046-36.714,389.239-39.592,389.438Z" transform="translate(91.859 -345.254)" fill="#c16f38"/>
  <path id="Path_3303" data-name="Path 3303" d="M-23.413,375.138s.832,9.905-1.773,17.356c-1.224,3.493-4.762,5.37-8.646,5.8-4.4.482-8.5-.3-10.8-3.22-3.808-4.839-6.895-12.416-4.332-19.936C-46,366.435-26.542,360.481-23.413,375.138Z" transform="translate(86.453 -364.533)" fill="#dd8d57"/>
  <path id="Path_3304" data-name="Path 3304" d="M-45.752,388.122a25.759,25.759,0,0,1,6.6-9.905,15.186,15.186,0,0,1,8.79-3.507c9.028-.343,10.157,8.842,10.157,8.842s3.143-19.468-12.776-17.685c-14.2,1.591-13.744,8.321-13.744,8.321a6.557,6.557,0,0,0-4.454,6.1A8.387,8.387,0,0,0-45.752,388.122Z" transform="translate(83.272 -365.752)" fill="#33211f"/>
  <path id="Path_3305" data-name="Path 3305" d="M17.344,391.4c-3.773-.954-24.027-7.643-29.922-7.419-2.419.094-12.482,1.238-12.482,1.238a.457.457,0,0,0-.063.025c-.108.024-.168.049-.189.08C-30.122,387-36.059,398.88-36.059,398.88s9.709,2.427,18.4-2.727C-11.763,397.7-2.665,395.006.1,395.006S4.7,397.8,6.5,398.88s4.367-1.206,9.615-2.517S21.117,392.349,17.344,391.4Z" transform="translate(121.007 -320.265)" fill="#dd8d57"/>
  <path id="Path_3306" data-name="Path 3306" d="M-46.89,402.237s14.178-5.751,21.712-10.192a36.029,36.029,0,0,0,8.157-6.143s12.178-2.2,16.115-2.626S9.755,384.4,9.755,384.4a36.964,36.964,0,0,0-5.248,11.08c-1.021,4.328.164,9.653.164,9.653l-13.227-1.783a14.8,14.8,0,0,1-4.1,11.5c-4.986,5.115-10.832,3.843-21.01,1.57C-45.012,413.887-46.89,402.237-46.89,402.237Z" transform="translate(93.969 -322.191)" fill="#32b7d6"/>
  <path id="Path_3307" data-name="Path 3307" d="M-41.524,394.248c1.71-9.958,10.793-8.028,16.307-4.769,3.563,2.108,9.5,10.5,15.2,16.268,3.122,3.164,8.5,4.717,10.951,7.856,3.276,4.189,0,6.573-4.556,6.374-7.007-.3-6.206-3.2-9.36-3.161-4.255.046-4.161-3.346-5.615-4.384a31.443,31.443,0,0,0-8.451-4.615C-35.762,404.367-43.062,403.213-41.524,394.248Z" transform="translate(106.85 -313.087)" fill="#dd8d57"/>
  <path id="Path_3308" data-name="Path 3308" d="M-47.265,398.768a42.782,42.782,0,0,0,1.689,4.15s11.979-3.063,19.359-7.821a56.261,56.261,0,0,0,11.961-10.381l-2.727-1.171s-5.028,3.849-10.93,7.643S-47.265,398.768-47.265,398.768Z" transform="translate(93.033 -321.334)" fill="#fff"/>
  <path id="Path_3309" data-name="Path 3309" d="M-46.052,371.831s-3.374-2.423-3.93,1.633,3.93,4.93,3.93,4.93Z" transform="translate(86.131 -352.37)" fill="#dd8d57"/>
  <path id="Path_3310" data-name="Path 3310" d="M-42.387,371.284s2.818-2.405,3.594.982-3.594,6.343-3.594,6.343l-.437-6.8Z" transform="translate(104.119 -354.009)" fill="#dd8d57"/>
</svg>
