<svg id="Group_2633" data-name="Group 2633" xmlns="http://www.w3.org/2000/svg" width="164.346" height="105.104" viewBox="0 0 164.346 105.104">
  <path id="Path_3295" data-name="Path 3295" d="M86.843,432.178c0,22.244-33.569,40.282-74.976,40.282s-74.983-18.038-74.983-40.282S-29.544,391.9,11.867,391.9,86.843,409.934,86.843,432.178Z" transform="translate(70.232 -367.355)" fill="#cc2121"/>
  <path id="Path_3296" data-name="Path 3296" d="M-63.727,396.334S-72.678,421.5-45.7,443.248c19.527,15.744,7.825-39.026,7.825-39.026Z" transform="translate(65.151 -356.294)" fill="#cc2121"/>
  <path id="Path_3297" data-name="Path 3297" d="M2.385,396.334s8.954,25.163-18.024,46.914c-19.527,15.744-7.825-39.026-7.825-39.026Z" transform="translate(160.536 -356.294)" fill="#cc2121"/>
  <path id="Path_3298" data-name="Path 3298" d="M97.054,428.356c0,24.01-36.236,43.481-80.934,43.481S-64.82,452.365-64.82,428.356s36.24-43.474,80.941-43.474S97.054,404.346,97.054,428.356Z" transform="translate(65.978 -384.882)" fill="#d83232"/>
  <g id="Group_2632" data-name="Group 2632" transform="translate(39.639 17.234)">
    <path id="Path_3299" data-name="Path 3299" d="M-11.354,404.975c18.492,0,34.177,6.363,40,15.223a13.724,13.724,0,0,0,2.454-7.58c0-12.6-19.01-22.807-42.456-22.807s-42.46,10.209-42.46,22.807a13.724,13.724,0,0,0,2.454,7.58C-45.538,411.338-29.85,404.975-11.354,404.975Z" transform="translate(53.814 -389.811)" fill="#cc2121"/>
    <path id="Path_3300" data-name="Path 3300" d="M-13.107,424.6c18.492,0,34.177-6.363,40-15.227-5.825-8.86-21.51-15.223-40-15.223s-34.184,6.363-40.005,15.223C-47.291,418.234-31.6,424.6-13.107,424.6Z" transform="translate(55.566 -378.984)" fill="#bf1d1d"/>
  </g>
</svg>
